# xmcd
#
# Track frame offsets:
#	150
#	18963
#	39882
#	56428
#	74514
#	95027
#	111420
#
# Disc length: 1550
#
# Revision: 1
# Processed by: cddbd v1.5.1PL0 Copyright (c) Steve Scherf et al.
# Submitted via: audiograbber 1.82.02
# Normalized: r0:DSETVAR1
#
DISCID=59060c07
DTITLE=Various Artist - Country 2002
DYEAR=2002
DGENRE=Country
TTITLE0=Brooks And Dunn - Mama Don't Get Dressed Up For Nothing
TTITLE1=Brad Paisley - He Didn't Have To Be
TTITLE2=Paul Brandt - I Do
TTITLE3=Joe Cocker and Jennifer Warnes - Up Where We Belong
TTITLE4=Sarah Evans - I Couldn't Ask For More
TTITLE5=Tim Mcgraw - My Next 30 Years
TTITLE6=Tv Themes - Columbo
EXTD=
EXTT0=
EXTT1=
EXTT2=
EXTT3=
EXTT4=
EXTT5=
EXTT6=
PLAYORDER=
